<?xml version="1.0" encoding="UTF-8" standalone="no"?><!DOCTYPE svg PUBLIC "-//W3C//DTD SVG 1.1//EN" "http://www.w3.org/Graphics/SVG/1.1/DTD/svg11.dtd"><svg width="100%" height="100%" viewBox="0 0 1280 311" version="1.1" xmlns="http://www.w3.org/2000/svg" xmlns:xlink="http://www.w3.org/1999/xlink" xml:space="preserve" xmlns:serif="http://www.serif.com/" style="fill-rule:evenodd;clip-rule:evenodd;stroke-linejoin:round;stroke-miterlimit:2;"><rect id="ArtBoard8" x="0" y="0" width="1280" height="310.913" style="fill:none;"/><clipPath id="_clip1"><rect x="0" y="0" width="1280" height="310.913"/></clipPath><g clip-path="url(#_clip1)"><g><g><path d="M72.461,147.765c-13.652,0 -26.024,-3.062 -37.117,-9.186c-11.092,-6.124 -19.756,-14.52 -25.991,-25.187c-6.235,-10.668 -9.353,-22.652 -9.353,-35.954c0,-13.301 3.118,-25.286 9.353,-35.953c6.235,-10.668 14.899,-19.063 25.991,-25.187c11.093,-6.124 23.465,-9.186 37.117,-9.186c13.652,0 25.959,3.029 36.92,9.087c10.961,6.058 19.592,14.454 25.893,25.187c6.301,10.733 9.451,22.751 9.451,36.052c0,13.302 -3.15,25.319 -9.451,36.053c-6.301,10.733 -14.932,19.129 -25.893,25.187c-10.961,6.058 -23.268,9.087 -36.92,9.087Zm0,-13.038c10.896,0 20.741,-2.47 29.536,-7.408c8.795,-4.939 15.687,-11.787 20.675,-20.545c4.988,-8.758 7.482,-18.537 7.482,-29.336c0,-10.799 -2.494,-20.577 -7.482,-29.335c-4.988,-8.758 -11.88,-15.607 -20.675,-20.545c-8.795,-4.939 -18.64,-7.408 -29.536,-7.408c-10.895,0 -20.773,2.469 -29.634,7.408c-8.861,4.938 -15.818,11.787 -20.872,20.545c-5.054,8.758 -7.581,18.536 -7.581,29.335c0,10.799 2.527,20.578 7.581,29.336c5.054,8.758 12.011,15.606 20.872,20.545c8.861,4.938 18.739,7.408 29.634,7.408Z" style="fill:#0a1f40;fill-rule:nonzero;"/><path d="M274.88,133.937l0,12.643l-97.468,0l0,-138.283l94.514,0l0,12.643l-79.943,0l0,49.189l71.279,0l0,12.445l-71.279,0l0,51.363l82.897,0Z" style="fill:#0a1f40;fill-rule:nonzero;"/><path d="M403.262,146.58l-31.505,-44.448c-3.544,0.395 -7.22,0.592 -11.027,0.592l-37.018,0l0,43.856l-14.571,0l0,-138.283l51.589,0c17.591,0 31.374,4.214 41.35,12.643c9.977,8.429 14.965,20.018 14.965,34.768c0,10.799 -2.724,19.919 -8.171,27.36c-5.448,7.441 -13.226,12.808 -23.334,16.1l33.671,47.412l-15.949,0Zm-42.925,-56.301c13.652,0 24.088,-3.029 31.307,-9.087c7.22,-6.058 10.83,-14.553 10.83,-25.484c0,-11.194 -3.61,-19.787 -10.83,-25.78c-7.219,-5.992 -17.655,-8.988 -31.307,-8.988l-36.625,0l0,69.339l36.625,0Z" style="fill:#0a1f40;fill-rule:nonzero;"/><rect x="440.674" y="86.921" width="51.589" height="12.248" style="fill:#0a1f40;fill-rule:nonzero;"/><path d="M578.114,8.297c17.59,0 31.373,4.214 41.35,12.643c9.976,8.429 14.965,20.018 14.965,34.768c0,14.75 -4.989,26.307 -14.965,34.67c-9.977,8.362 -23.76,12.544 -41.35,12.544l-37.019,0l0,43.658l-14.571,0l0,-138.283l51.59,0Zm-0.394,81.784c13.652,0 24.088,-2.996 31.308,-8.988c7.22,-5.992 10.83,-14.454 10.83,-25.385c0,-11.194 -3.61,-19.787 -10.83,-25.78c-7.22,-5.992 -17.656,-8.988 -31.308,-8.988l-36.625,0l0,69.141l36.625,0Z" style="fill:#0a1f40;fill-rule:nonzero;"/><path d="M704.724,147.567c-9.977,0 -18.969,-2.271 -26.976,-6.815c-8.008,-4.544 -14.309,-10.832 -18.903,-18.866c-4.595,-8.033 -6.892,-17.12 -6.892,-27.261c0,-10.141 2.297,-19.228 6.892,-27.262c4.594,-8.033 10.895,-14.289 18.903,-18.767c8.007,-4.477 16.999,-6.716 26.976,-6.716c9.976,0 18.968,2.239 26.976,6.716c8.007,4.478 14.275,10.734 18.804,18.767c4.529,8.034 6.793,17.121 6.793,27.262c0,10.141 -2.264,19.228 -6.793,27.261c-4.529,8.034 -10.797,14.322 -18.804,18.866c-8.008,4.544 -17,6.815 -26.976,6.815Zm0,-12.445c7.351,0 13.947,-1.679 19.789,-5.038c5.841,-3.358 10.403,-8.132 13.685,-14.322c3.281,-6.189 4.922,-13.235 4.922,-21.137c0,-7.902 -1.641,-14.948 -4.922,-21.138c-3.282,-6.189 -7.844,-10.963 -13.685,-14.322c-5.842,-3.358 -12.438,-5.037 -19.789,-5.037c-7.351,0 -13.948,1.679 -19.789,5.037c-5.842,3.359 -10.436,8.133 -13.784,14.322c-3.347,6.19 -5.021,13.236 -5.021,21.138c0,7.902 1.674,14.948 5.021,21.137c3.348,6.19 7.942,10.964 13.784,14.322c5.841,3.359 12.438,5.038 19.789,5.038Z" style="fill:#0a1f40;fill-rule:nonzero;"/><path d="M799.238,63.017c3.282,-6.98 8.172,-12.248 14.67,-15.803c6.498,-3.556 14.538,-5.334 24.121,-5.334l0,13.631l-3.348,-0.198c-10.895,0 -19.428,3.358 -25.598,10.075c-6.169,6.717 -9.254,16.133 -9.254,28.249l0,52.943l-13.98,0l0,-103.91l13.389,0l0,20.347Z" style="fill:#0a1f40;fill-rule:nonzero;"/><path d="M922.304,140.258c-2.625,2.371 -5.874,4.182 -9.747,5.433c-3.872,1.251 -7.909,1.876 -12.11,1.876c-9.714,0 -17.196,-2.634 -22.447,-7.902c-5.251,-5.267 -7.876,-12.708 -7.876,-22.322l0,-62.82l-18.509,0l0,-11.853l18.509,0l0,-22.718l13.98,0l0,22.718l31.505,0l0,11.853l-31.505,0l0,62.03c0,6.189 1.543,10.898 4.628,14.124c3.084,3.227 7.515,4.84 13.291,4.84c2.888,0 5.677,-0.461 8.368,-1.383c2.691,-0.922 5.021,-2.239 6.99,-3.951l4.923,10.075Z" style="fill:#0a1f40;fill-rule:nonzero;"/><path d="M983.935,41.88c13.521,0 23.891,3.391 31.111,10.174c7.22,6.782 10.83,16.824 10.83,30.125l0,64.401l-13.389,0l0,-16.199c-3.151,5.399 -7.778,9.614 -13.882,12.643c-6.104,3.029 -13.357,4.543 -21.758,4.543c-11.552,0 -20.741,-2.765 -27.567,-8.297c-6.826,-5.531 -10.239,-12.84 -10.239,-21.927c0,-8.824 3.183,-15.936 9.55,-21.335c6.366,-5.4 16.507,-8.1 30.422,-8.1l32.883,0l0,-6.321c0,-8.956 -2.494,-15.771 -7.483,-20.446c-4.988,-4.676 -12.273,-7.013 -21.856,-7.013c-6.564,0 -12.865,1.086 -18.903,3.259c-6.038,2.173 -11.224,5.169 -15.555,8.989l-6.301,-10.47c5.25,-4.478 11.551,-7.935 18.902,-10.371c7.352,-2.437 15.097,-3.655 23.235,-3.655Zm-4.922,94.625c7.876,0 14.636,-1.811 20.281,-5.433c5.644,-3.621 9.845,-8.856 12.602,-15.705l0,-16.989l-32.49,0c-17.721,0 -26.582,6.19 -26.582,18.57c0,6.058 2.297,10.832 6.892,14.322c4.594,3.49 11.027,5.235 19.297,5.235Z" style="fill:#0a1f40;fill-rule:nonzero;"/><rect x="1063.88" y="0" width="13.98" height="146.58" style="fill:#0a1f40;fill-rule:nonzero;"/></g><g><path d="M110.815,215.366l0,95.547l-0.262,0l-71.657,-80.959l0.131,78.725l-6.288,0l0,-95.285l0.393,0l71.657,81.616l-0.131,-79.644l6.157,0Z" style="fill:#0a1f40;fill-rule:nonzero;"/><path d="M165.442,257.291l0,51.388l-6.157,0l0,-51.388l6.157,0Zm-7.467,-18.926c0,-1.226 0.459,-2.256 1.376,-3.088c0.917,-0.832 1.986,-1.249 3.209,-1.249c1.223,0 2.271,0.417 3.144,1.249c0.873,0.832 1.31,1.862 1.31,3.088c0,1.315 -0.437,2.388 -1.31,3.22c-0.873,0.833 -1.921,1.249 -3.144,1.249c-1.223,0 -2.292,-0.438 -3.209,-1.314c-0.917,-0.877 -1.376,-1.928 -1.376,-3.155Z" style="fill:#0a1f40;fill-rule:nonzero;"/><path d="M233.169,304.342c5.502,0 10.48,-1.884 14.934,-5.652l3.144,4.469c-2.532,2.015 -5.393,3.614 -8.58,4.797c-3.188,1.183 -6.397,1.774 -9.629,1.774c-5.24,0 -9.934,-1.183 -14.082,-3.548c-4.149,-2.366 -7.38,-5.586 -9.694,-9.66c-2.315,-4.074 -3.472,-8.652 -3.472,-13.734c0,-4.907 1.223,-9.441 3.668,-13.603c2.445,-4.162 5.764,-7.469 9.956,-9.923c4.192,-2.453 8.777,-3.68 13.755,-3.68c5.939,0 11.004,1.753 15.196,5.257c4.192,3.505 7.249,8.237 9.17,14.195l-43.754,16.954c1.659,3.68 4.214,6.659 7.664,8.937c3.449,2.278 7.358,3.417 11.724,3.417Zm-0.393,-43.503c-3.842,0 -7.379,0.964 -10.611,2.892c-3.231,1.927 -5.764,4.534 -7.598,7.82c-1.834,3.285 -2.751,6.943 -2.751,10.974c0,1.84 0.175,3.461 0.524,4.863l37.728,-14.852c-1.659,-3.504 -3.973,-6.33 -6.943,-8.477c-2.969,-2.146 -6.419,-3.22 -10.349,-3.22Z" style="fill:#0a1f40;fill-rule:nonzero;"/><path d="M346.877,208.794l0,99.885l-6.288,0l0,-10.646c-2.358,3.505 -5.589,6.331 -9.694,8.477c-4.104,2.147 -8.558,3.22 -13.362,3.22c-4.803,0 -9.191,-1.161 -13.165,-3.483c-3.974,-2.321 -7.096,-5.563 -9.367,-9.725c-2.27,-4.162 -3.406,-8.784 -3.406,-13.866c0,-5.344 1.179,-10.076 3.537,-14.194c2.358,-4.118 5.546,-7.272 9.563,-9.463c4.018,-2.19 8.515,-3.285 13.493,-3.285c4.454,0 8.756,1.095 12.904,3.285c4.148,2.191 7.358,5.082 9.628,8.675l0,-58.88l6.157,0Zm-27.772,95.548c5.852,0 10.786,-1.84 14.803,-5.52c4.018,-3.68 6.245,-8.324 6.681,-13.931l0,-6.572c-0.96,-4.994 -3.471,-9.156 -7.532,-12.485c-4.061,-3.33 -8.712,-4.995 -13.952,-4.995c-3.93,0 -7.51,0.92 -10.742,2.76c-3.231,1.84 -5.807,4.403 -7.729,7.689c-1.921,3.286 -2.882,7.031 -2.882,11.237c0,3.943 0.961,7.579 2.882,10.908c1.922,3.33 4.52,5.98 7.795,7.952c3.275,1.971 6.834,2.957 10.676,2.957Z" style="fill:#0a1f40;fill-rule:nonzero;"/><path d="M414.605,304.342c5.502,0 10.48,-1.884 14.934,-5.652l3.144,4.469c-2.533,2.015 -5.393,3.614 -8.581,4.797c-3.188,1.183 -6.397,1.774 -9.628,1.774c-5.24,0 -9.935,-1.183 -14.083,-3.548c-4.148,-2.366 -7.38,-5.586 -9.694,-9.66c-2.314,-4.074 -3.471,-8.652 -3.471,-13.734c0,-4.907 1.222,-9.441 3.668,-13.603c2.445,-4.162 5.764,-7.469 9.956,-9.923c4.192,-2.453 8.777,-3.68 13.755,-3.68c5.938,0 11.004,1.753 15.196,5.257c4.192,3.505 7.248,8.237 9.17,14.195l-43.754,16.954c1.659,3.68 4.213,6.659 7.663,8.937c3.45,2.278 7.358,3.417 11.725,3.417Zm-0.393,-43.503c-3.843,0 -7.38,0.964 -10.611,2.892c-3.232,1.927 -5.764,4.534 -7.598,7.82c-1.834,3.285 -2.751,6.943 -2.751,10.974c0,1.84 0.174,3.461 0.524,4.863l37.728,-14.852c-1.66,-3.504 -3.974,-6.33 -6.943,-8.477c-2.97,-2.146 -6.419,-3.22 -10.349,-3.22Z" style="fill:#0a1f40;fill-rule:nonzero;"/><path d="M483.904,269.514c1.834,-4.118 4.847,-7.404 9.039,-9.857c4.192,-2.454 8.384,-3.724 12.576,-3.812l-0.262,6.046c-3.843,0 -7.38,0.854 -10.611,2.563c-3.232,1.708 -5.786,4.074 -7.664,7.097c-1.877,3.023 -2.816,6.33 -2.816,9.922l0,27.206l-6.157,0l0,-51.388l5.371,0l0.524,12.223Z" style="fill:#0a1f40;fill-rule:nonzero;"/><path d="M556.871,309.73c-3.319,0 -6.528,-0.569 -9.629,-1.708c-3.1,-1.139 -5.611,-2.892 -7.532,-5.257l2.882,-4.075c1.747,1.84 3.843,3.308 6.288,4.403c2.445,1.095 4.978,1.643 7.598,1.643c3.319,0 6.113,-0.767 8.384,-2.3c2.271,-1.533 3.406,-3.921 3.406,-7.163c0,-2.278 -0.611,-4.096 -1.834,-5.454c-1.223,-1.358 -2.62,-2.366 -4.192,-3.023c-1.572,-0.657 -4.105,-1.555 -7.598,-2.694c-4.105,-1.402 -7.271,-3.176 -9.498,-5.323c-2.227,-2.146 -3.34,-5.016 -3.34,-8.608c0,-4.206 1.463,-7.601 4.388,-10.186c2.926,-2.585 6.66,-3.877 11.201,-3.877c6.288,0 11.397,1.928 15.327,5.783l-2.751,4.337c-1.31,-1.752 -3.035,-3.023 -5.175,-3.811c-2.139,-0.789 -4.301,-1.227 -6.484,-1.315c-2.62,0 -5,0.723 -7.14,2.169c-2.139,1.446 -3.209,3.483 -3.209,6.111c0,2.716 0.961,4.753 2.882,6.112c1.921,1.358 4.847,2.738 8.777,4.14c4.803,1.577 8.471,3.351 11.004,5.322c2.533,1.972 3.799,4.973 3.799,9.003c0,4.731 -1.507,8.543 -4.52,11.434c-3.013,2.892 -7.357,4.337 -13.034,4.337Z" style="fill:#0a1f40;fill-rule:nonzero;"/><path d="M664.946,257.291l0,51.388l-6.157,0l0,-10.909c-2.009,3.33 -5.065,6.156 -9.17,8.477c-4.105,2.322 -8.559,3.483 -13.362,3.483c-4.891,0 -9.323,-1.117 -13.296,-3.351c-3.974,-2.234 -7.118,-5.389 -9.432,-9.463c-2.315,-4.074 -3.472,-8.74 -3.472,-13.997c0,-5.607 1.201,-10.448 3.603,-14.522c2.401,-4.075 5.72,-7.207 9.956,-9.398c4.235,-2.19 9.017,-3.285 14.344,-3.285c4.192,0 8.209,1.183 12.052,3.548c3.843,2.366 6.768,5.433 8.777,9.2l0.655,-11.171l5.502,0Zm-27.379,47.182c5.764,0 10.655,-1.796 14.672,-5.388c4.017,-3.593 6.201,-8.193 6.55,-13.8l0,-7.36c-1.048,-4.819 -3.581,-8.849 -7.598,-12.091c-4.017,-3.242 -8.602,-4.863 -13.755,-4.863c-3.93,0 -7.511,0.898 -10.742,2.694c-3.231,1.796 -5.786,4.337 -7.663,7.623c-1.878,3.286 -2.817,7.075 -2.817,11.368c0,3.943 0.961,7.579 2.882,10.909c1.921,3.329 4.52,5.98 7.795,7.951c3.275,1.972 6.833,2.957 10.676,2.957Z" style="fill:#0a1f40;fill-rule:nonzero;"/><path d="M749.834,303.685c-2.358,1.927 -5.043,3.417 -8.056,4.468c-3.013,1.052 -6.092,1.577 -9.236,1.577c-5.152,0 -9.803,-1.161 -13.951,-3.483c-4.149,-2.321 -7.402,-5.519 -9.76,-9.594c-2.358,-4.074 -3.537,-8.652 -3.537,-13.734c0,-5.082 1.201,-9.66 3.603,-13.734c2.401,-4.074 5.655,-7.272 9.759,-9.594c4.105,-2.322 8.559,-3.483 13.362,-3.483c7.074,0 13.057,2.015 17.947,6.046l-3.275,4.205c-4.366,-3.417 -9.126,-5.125 -14.279,-5.125c-3.842,0 -7.358,0.964 -10.545,2.891c-3.188,1.928 -5.721,4.556 -7.598,7.886c-1.878,3.329 -2.817,6.965 -2.817,10.908c0,3.943 0.939,7.557 2.817,10.843c1.877,3.286 4.454,5.892 7.729,7.82c3.275,1.927 6.921,2.891 10.938,2.891c4.891,0 9.389,-1.533 13.493,-4.6l3.406,3.812Z" style="fill:#0a1f40;fill-rule:nonzero;"/><path d="M816.513,255.845c4.716,0 8.559,1.424 11.529,4.272c2.969,2.847 4.541,6.549 4.716,11.105l0,37.457l-6.289,0l0,-35.748c-0.174,-3.417 -1.266,-6.199 -3.275,-8.346c-2.008,-2.147 -4.89,-3.264 -8.646,-3.351c-3.406,0 -6.593,0.876 -9.563,2.628c-2.969,1.753 -5.349,4.14 -7.139,7.163c-1.79,3.023 -2.686,6.374 -2.686,10.054l0,27.6l-6.157,0l0,-99.885l6.026,0l0,59.143c1.922,-3.505 4.804,-6.397 8.646,-8.675c3.843,-2.278 8.122,-3.417 12.838,-3.417Z" style="fill:#0a1f40;fill-rule:nonzero;"/><path d="M890.136,309.73c-3.319,0 -6.529,-0.569 -9.629,-1.708c-3.1,-1.139 -5.611,-2.892 -7.532,-5.257l2.882,-4.075c1.746,1.84 3.842,3.308 6.288,4.403c2.445,1.095 4.978,1.643 7.598,1.643c3.318,0 6.113,-0.767 8.384,-2.3c2.27,-1.533 3.406,-3.921 3.406,-7.163c0,-2.278 -0.612,-4.096 -1.834,-5.454c-1.223,-1.358 -2.62,-2.366 -4.192,-3.023c-1.572,-0.657 -4.105,-1.555 -7.598,-2.694c-4.105,-1.402 -7.271,-3.176 -9.498,-5.323c-2.227,-2.146 -3.34,-5.016 -3.34,-8.608c0,-4.206 1.462,-7.601 4.388,-10.186c2.926,-2.585 6.659,-3.877 11.201,-3.877c6.288,0 11.397,1.928 15.327,5.783l-2.751,4.337c-1.31,-1.752 -3.035,-3.023 -5.175,-3.811c-2.14,-0.789 -4.301,-1.227 -6.484,-1.315c-2.62,0 -5,0.723 -7.14,2.169c-2.14,1.446 -3.209,3.483 -3.209,6.111c0,2.716 0.96,4.753 2.882,6.112c1.921,1.358 4.847,2.738 8.777,4.14c4.803,1.577 8.471,3.351 11.004,5.322c2.532,1.972 3.799,4.973 3.799,9.003c0,4.731 -1.507,8.543 -4.52,11.434c-3.013,2.892 -7.358,4.337 -13.034,4.337Z" style="fill:#0a1f40;fill-rule:nonzero;"/><path d="M970.701,304.342c5.502,0 10.48,-1.884 14.934,-5.652l3.144,4.469c-2.533,2.015 -5.393,3.614 -8.581,4.797c-3.187,1.183 -6.397,1.774 -9.628,1.774c-5.24,0 -9.934,-1.183 -14.083,-3.548c-4.148,-2.366 -7.379,-5.586 -9.694,-9.66c-2.314,-4.074 -3.471,-8.652 -3.471,-13.734c0,-4.907 1.222,-9.441 3.668,-13.603c2.445,-4.162 5.764,-7.469 9.956,-9.923c4.192,-2.453 8.777,-3.68 13.755,-3.68c5.938,0 11.004,1.753 15.196,5.257c4.192,3.505 7.249,8.237 9.17,14.195l-43.754,16.954c1.659,3.68 4.214,6.659 7.663,8.937c3.45,2.278 7.358,3.417 11.725,3.417Zm-0.393,-43.503c-3.843,0 -7.38,0.964 -10.611,2.892c-3.232,1.927 -5.764,4.534 -7.598,7.82c-1.834,3.285 -2.751,6.943 -2.751,10.974c0,1.84 0.174,3.461 0.524,4.863l37.728,-14.852c-1.659,-3.504 -3.974,-6.33 -6.943,-8.477c-2.97,-2.146 -6.419,-3.22 -10.349,-3.22Z" style="fill:#0a1f40;fill-rule:nonzero;"/><path d="M1061.62,255.845c4.716,0 8.559,1.424 11.528,4.272c2.969,2.847 4.541,6.549 4.716,11.105l0,37.457l-6.288,0l0,-35.748c-0.175,-3.417 -1.266,-6.199 -3.275,-8.346c-2.009,-2.147 -4.891,-3.264 -8.646,-3.351c-3.493,0 -6.703,0.832 -9.629,2.497c-2.925,1.665 -5.283,4.008 -7.074,7.031c-1.79,3.023 -2.685,6.462 -2.685,10.317l0,27.6l-6.157,0l0,-51.388l5.371,0l0.524,11.434c1.659,-3.943 4.476,-7.075 8.449,-9.397c3.974,-2.322 8.363,-3.483 13.166,-3.483Z" style="fill:#0a1f40;fill-rule:nonzero;"/></g></g><g><path d="M1129.18,42.574c2.313,1.077 4.115,2.481 5.403,4.219c1.295,1.737 1.947,3.745 1.947,6.025c0,4.469 -1.469,7.756 -4.392,9.855c-2.924,2.092 -6.581,3.141 -10.959,3.141l-14.63,0l0,-44.089l12.898,0c4.662,0 8.32,0.945 10.987,2.842c2.667,1.897 4.004,4.643 4.004,8.243c0,2.196 -0.458,4.121 -1.372,5.775c-0.921,1.661 -2.21,2.988 -3.886,3.989Zm-13.972,-2.815l5.257,0c1.594,0 2.827,-0.493 3.699,-1.473c0.88,-0.973 1.317,-2.182 1.317,-3.621c0,-1.48 -0.499,-2.606 -1.497,-3.384c-0.99,-0.779 -2.369,-1.168 -4.114,-1.168l-4.662,0l0,9.646Zm5.555,17.966c2.03,0 3.672,-0.404 4.925,-1.224c1.254,-0.82 1.885,-2.05 1.885,-3.683c0,-3.12 -2.473,-4.677 -7.406,-4.677l-4.959,0l0,9.584l5.555,0Z" style="fill:#f38c3e;fill-rule:nonzero;"/><path d="M1176.36,21.725l0,8.388l-21.315,0l0,9.403l18.863,0l0,8.388l-18.863,0l0,9.522l22.153,0l0,8.388l-30.812,0l0,-44.089l29.974,0Z" style="fill:#f38c3e;fill-rule:nonzero;"/><path d="M1213.97,21.725l0,8.388l-10.689,0l0,35.701l-8.652,0l0,-35.701l-10.273,0l0,-8.388l29.614,0Z" style="fill:#f38c3e;fill-rule:nonzero;"/><path d="M1241.68,57.189l-14.568,0l-3.582,8.625l-8.541,0l19.826,-45.827l0.478,0l19.819,45.827l-10.031,0l-3.401,-8.625Zm-2.868,-7.311l-4.24,-10.723l-4.419,10.723l8.659,0Z" style="fill:#f38c3e;fill-rule:nonzero;"/><path d="M1255.06,0.354l0.513,0l0.519,0.021l0.513,0.035l0.512,0.041l0.506,0.056l0.506,0.07l0.505,0.083l0.499,0.097l0.499,0.104l0.492,0.119l0.492,0.132l0.492,0.139l0.477,0.153l0.485,0.166l0.471,0.181l0.471,0.188l0.465,0.201l0.464,0.209l0.457,0.222l0.45,0.236l0.444,0.244l0.436,0.257l0.436,0.271l0.423,0.278l0.422,0.285l0.416,0.299l0.409,0.312l0.395,0.32l0.395,0.334l0.387,0.34l0.375,0.348l0.367,0.361l0.36,0.375l0.353,0.376l0.34,0.389l0.332,0.389l0.319,0.403l0.305,0.41l0.297,0.41l0.291,0.424l0.277,0.431l0.264,0.431l0.256,0.445l0.249,0.444l0.229,0.452l0.222,0.459l0.214,0.459l0.201,0.472l0.187,0.466l0.173,0.479l0.167,0.48l0.152,0.486l0.146,0.487l0.131,0.493l0.118,0.501l0.104,0.5l0.09,0.5l0.083,0.508l0.069,0.507l0.056,0.507l0.048,0.515l0.028,0.514l0.021,0.514l0.007,0.521l0,44.938l-0.021,0.521l-0.028,0.514l-0.048,0.514l-0.056,0.508l-0.069,0.507l-0.083,0.508l-0.09,0.5l-0.104,0.5l-0.118,0.494l-0.131,0.493l-0.146,0.494l-0.152,0.479l-0.167,0.487l-0.173,0.472l-0.187,0.473l-0.201,0.465l-0.214,0.466l-0.222,0.459l-0.229,0.451l-0.249,0.445l-0.256,0.438l-0.264,0.438l-0.277,0.424l-0.291,0.424l-0.298,0.417l-0.304,0.41l-0.319,0.396l-0.332,0.396l-0.34,0.389l-0.353,0.376l-0.36,0.368l-0.368,0.361l-0.374,0.355l-0.388,0.34l-0.394,0.334l-0.395,0.32l-0.409,0.305l-0.416,0.299l-0.422,0.292l-0.423,0.278l-0.436,0.264l-0.437,0.257l-0.443,0.25l-0.45,0.23l-0.457,0.222l-0.464,0.216l-0.465,0.201l-0.471,0.188l-0.471,0.174l-0.485,0.166l-0.478,0.153l-0.491,0.146l-0.492,0.132l-0.492,0.118l-0.499,0.105l-0.499,0.09l-0.505,0.083l-0.506,0.07l-0.506,0.055l-0.512,0.049l-0.513,0.028l-0.519,0.021l-0.513,0l-148.242,0l-0.513,-0.007l-0.519,-0.021l-0.513,-0.028l-0.506,-0.048l-0.512,-0.056l-0.506,-0.07l-0.506,-0.083l-0.499,-0.09l-0.498,-0.105l-0.492,-0.118l-0.492,-0.132l-0.485,-0.146l-0.485,-0.153l-0.485,-0.166l-0.471,-0.174l-0.471,-0.188l-0.464,-0.201l-0.464,-0.216l-0.457,-0.222l-0.45,-0.229l-0.444,-0.251l-0.436,-0.257l-0.437,-0.264l-0.422,-0.278l-0.423,-0.292l-0.415,-0.299l-0.409,-0.305l-0.395,-0.32l-0.395,-0.334l-0.388,-0.34l-0.374,-0.355l-0.367,-0.361l-0.36,-0.368l-0.353,-0.376l-0.34,-0.389l-0.332,-0.396l-0.319,-0.396l-0.305,-0.41l-0.298,-0.417l-0.291,-0.424l-0.277,-0.424l-0.263,-0.438l-0.256,-0.438l-0.25,-0.445l-0.228,-0.451l-0.222,-0.459l-0.215,-0.466l-0.201,-0.465l-0.187,-0.473l-0.173,-0.472l-0.166,-0.487l-0.152,-0.479l-0.146,-0.494l-0.131,-0.493l-0.118,-0.494l-0.104,-0.5l-0.09,-0.5l-0.083,-0.508l-0.07,-0.507l-0.055,-0.507l-0.049,-0.515l-0.027,-0.514l-0.021,-0.521l0,-0.515l0,-44.568l0.007,-0.536l0.021,-0.528l0.034,-0.528l0.042,-0.528l0.062,-0.521l0.07,-0.515l0.09,-0.514l0.097,-0.507l0.103,-0.501l0.125,-0.5l0.132,-0.493l0.145,-0.487l0.16,-0.486l0.166,-0.48l0.18,-0.473l0.187,-0.465l0.201,-0.459l0.215,-0.459l0.221,-0.444l0.236,-0.445l0.242,-0.438l0.25,-0.431l0.263,-0.424l0.277,-0.417l0.284,-0.41l0.291,-0.403l0.298,-0.396l0.311,-0.382l0.326,-0.383l0.326,-0.368l0.339,-0.368l0.346,-0.355l0.354,-0.347l0.36,-0.334l0.374,-0.333l0.374,-0.32l0.388,-0.313l0.395,-0.306l0.402,-0.291l0.408,-0.285l0.409,-0.271l0.423,-0.264l0.429,-0.258l0.437,-0.243l0.443,-0.229l0.45,-0.23l0.45,-0.208l0.465,-0.202l0.464,-0.194l0.471,-0.181l0.478,-0.167l0.478,-0.153l0.491,-0.145l0.492,-0.139l0.492,-0.119l0.506,-0.111l0.506,-0.097l0.512,-0.084l0.513,-0.069l0.519,-0.063l0.52,-0.048l0.526,-0.035l0.527,-0.014l0.533,-0.007l148.388,0l-0.014,0.007Zm-148.284,10.425l-0.346,0l-0.347,0.007l-0.256,0.014l-0.235,0.02l-0.215,0.028l-0.229,0.035l-0.325,0.056l-0.201,0.034l-0.27,0.063l-0.312,0.069l-0.132,0.042l-0.263,0.077l-0.242,0.076l-0.215,0.076l-0.305,0.119l-0.235,0.097l-0.222,0.097l-0.132,0.063l-0.277,0.146l-0.305,0.146l-0.041,0.027l-0.256,0.16l-0.278,0.167l-0.207,0.139l-0.194,0.132l-0.174,0.132l-0.242,0.181l-0.159,0.132l-0.208,0.174l-0.222,0.194l-0.055,0.049l-0.243,0.25l-0.201,0.202l-0.138,0.153l-0.146,0.159l-0.131,0.167l-0.284,0.341l-0.042,0.048l-0.124,0.181l-0.187,0.271l-0.118,0.181l-0.208,0.34l-0.152,0.237l-0.028,0.055l-0.132,0.25l-0.124,0.251l-0.042,0.09l-0.104,0.257l-0.166,0.396l-0.104,0.271l-0.042,0.105l-0.083,0.278l-0.09,0.284l-0.028,0.105l-0.069,0.292l-0.062,0.278l-0.028,0.146l-0.041,0.305l-0.049,0.32l-0.035,0.327l-0.013,0.139l-0.007,0.153l-0.021,0.521l-0.014,0.354l0,44.194l0.014,0.32l0.021,0.514l0.007,0.132l0.013,0.132l0.056,0.5l0.007,0.111l0.062,0.313l0.042,0.299l0.027,0.104l0.07,0.313l0.034,0.132l0.083,0.264l0.146,0.452l0.041,0.132l0.042,0.104l0.173,0.445l0.097,0.222l0.042,0.098l0.152,0.299l0.125,0.264l0.041,0.069l0.153,0.25l0.242,0.396l0.125,0.202l0.035,0.063l0.18,0.236l0.173,0.236l0.097,0.118l0.263,0.306l0.152,0.181l0.118,0.125l0.263,0.271l0.257,0.257l0.291,0.243l0.214,0.188l0.091,0.076l0.2,0.146l0.291,0.209l0.284,0.201l0.132,0.084l0.201,0.125l0.138,0.083l0.305,0.16l0.284,0.153l0.146,0.069l0.311,0.146l0.215,0.091l0.153,0.062l0.304,0.111l0.243,0.084l0.221,0.069l0.208,0.063l0.264,0.069l0.27,0.07l0.235,0.042l0.243,0.048l0.277,0.042l0.298,0.049l0.131,0.014l0.326,0.02l0.318,0.028l149.157,0l0.617,-0.048l0.117,-0.014l0.638,-0.098l0.18,-0.034l0.215,-0.042l0.623,-0.16l0.173,-0.049l0.215,-0.069l0.312,-0.104l0.18,-0.063l0.201,-0.09l0.228,-0.091l0.52,-0.257l0.222,-0.111l0.207,-0.111l0.215,-0.132l0.298,-0.181l0.145,-0.09l0.395,-0.278l0.464,-0.369l0.132,-0.111l0.18,-0.16l0.277,-0.257l0.18,-0.173l0.083,-0.084l0.361,-0.403l0.339,-0.424l0.353,-0.472l0.132,-0.202l0.139,-0.202l0.069,-0.111l0.138,-0.25l0.201,-0.361l0.063,-0.112l0.256,-0.562l0.104,-0.23l0.041,-0.111l0.097,-0.271l0.111,-0.313l0.028,-0.097l0.152,-0.57l0.139,-0.605l0.021,-0.111l0.097,-0.611l0.013,-0.125l0.049,-0.647l0,-0.125l0,-45.083l0,-0.125l-0.028,-0.32l-0.021,-0.313l-0.013,-0.132l-0.049,-0.319l-0.048,-0.299l-0.021,-0.111l-0.063,-0.292l-0.076,-0.313l-0.076,-0.285l-0.076,-0.278l-0.042,-0.132l-0.097,-0.285l-0.083,-0.236l-0.041,-0.098l-0.139,-0.305l-0.187,-0.431l-0.028,-0.063l-0.062,-0.097l-0.242,-0.452l-0.118,-0.208l-0.042,-0.063l-0.194,-0.292l-0.131,-0.208l-0.146,-0.195l-0.18,-0.236l-0.145,-0.188l-0.194,-0.229l-0.201,-0.229l-0.16,-0.181l-0.083,-0.084l-0.18,-0.173l-0.221,-0.209l-0.181,-0.153l-0.242,-0.208l-0.229,-0.181l-0.18,-0.139l-0.201,-0.146l-0.131,-0.09l-0.208,-0.132l-0.298,-0.181l-0.291,-0.167l-0.208,-0.118l-0.145,-0.076l-0.215,-0.104l-0.222,-0.105l-0.311,-0.132l-0.291,-0.118l-0.09,-0.035l-0.229,-0.076l-0.298,-0.097l-0.263,-0.077l-0.222,-0.055l-0.311,-0.077l-0.305,-0.069l-0.09,-0.014l-0.194,-0.035l-0.347,-0.042l-0.304,-0.035l-0.208,-0.02l-0.229,-0.014l-0.312,-0.007l-0.339,-0.007l-148.187,0l0,0.007Z" style="fill:#f38c3e;"/></g></g><g id="Suchen-CTA" serif:id="Suchen CTA"></g><g id="Suchen-CTA1" serif:id="Suchen CTA"></g><g id="Line-Art_teilen" serif:id="Line Art_teilen"></g><g id="Line-Art_teilen1" serif:id="Line Art_teilen"></g><g><g id="Background"></g><g id="Bild-OER" serif:id="Bild OER"></g></g><g id="Bild-OER1" serif:id="Bild OER"></g></svg>